<svg width="21" height="21" viewBox="0 0 21 21" fill="none" xmlns="http://www.w3.org/2000/svg">
<path d="M12.4359 10.9045L20.7259 2.61448C20.8897 2.42318 20.9753 2.1771 20.9656 1.92543C20.9558 1.67375 20.8515 1.43501 20.6734 1.25692C20.4953 1.07882 20.2566 0.974492 20.0049 0.964771C19.7532 0.95505 19.5072 1.04066 19.3159 1.20448L11.0259 9.49448L2.73585 1.19448C2.54755 1.00618 2.29215 0.900391 2.02585 0.900391C1.75955 0.900391 1.50416 1.00618 1.31585 1.19448C1.12755 1.38279 1.02176 1.63818 1.02176 1.90448C1.02176 2.17078 1.12755 2.42618 1.31585 2.61448L9.61585 10.9045L1.31585 19.1945C1.21117 19.2841 1.12615 19.3944 1.06613 19.5185C1.0061 19.6426 0.972373 19.7777 0.967054 19.9154C0.961734 20.0531 0.98494 20.1905 1.03521 20.3188C1.08549 20.4471 1.16175 20.5637 1.2592 20.6611C1.35666 20.7586 1.4732 20.8348 1.60153 20.8851C1.72985 20.9354 1.86719 20.9586 2.00491 20.9533C2.14262 20.948 2.27776 20.9142 2.40182 20.8542C2.52589 20.7942 2.6362 20.7092 2.72585 20.6045L11.0259 12.3145L19.3159 20.6045C19.5072 20.7683 19.7532 20.8539 20.0049 20.8442C20.2566 20.8345 20.4953 20.7301 20.6734 20.552C20.8515 20.374 20.9558 20.1352 20.9656 19.8835C20.9753 19.6319 20.8897 19.3858 20.7259 19.1945L12.4359 10.9045Z" fill="black"/>
</svg>
