<svg width="43" height="43" viewBox="0 0 43 43" fill="none" xmlns="http://www.w3.org/2000/svg">
<circle cx="21.1743" cy="21.8314" r="20.8953" fill="black"/>
<path fill-rule="evenodd" clip-rule="evenodd" d="M13.0897 16.0717C13.0897 15.5356 13.3027 15.0216 13.6817 14.6425C14.0607 14.2635 14.5748 14.0505 15.1109 14.0505H27.2377C27.7737 14.0505 28.2878 14.2635 28.6669 14.6425C29.0459 15.0216 29.2589 15.5356 29.2589 16.0717V26.1774C29.2589 26.7134 29.0459 27.2275 28.6669 27.6065C28.2878 27.9856 27.7737 28.1985 27.2377 28.1985H22.6032L18.8581 31.9457C18.7167 32.0874 18.5365 32.184 18.3402 32.2231C18.144 32.2622 17.9405 32.2422 17.7556 32.1656C17.5707 32.089 17.4128 31.9591 17.3017 31.7926C17.1907 31.6261 17.1316 31.4304 17.132 31.2302V28.1985H15.1109C14.5748 28.1985 14.0607 27.9856 13.6817 27.6065C13.3027 27.2275 13.0897 26.7134 13.0897 26.1774V16.0717Z" fill="white"/>
</svg>
